<?xml version="1.0" standalone="no"?>
<!DOCTYPE svg PUBLIC "-//W3C//DTD SVG 20010904//EN"
 "http://www.w3.org/TR/2001/REC-SVG-20010904/DTD/svg10.dtd">
<svg version="1.0" xmlns="http://www.w3.org/2000/svg"
 width="500.000000pt" height="500.000000pt" viewBox="0 0 500.000000 500.000000"
 preserveAspectRatio="xMidYMid meet">

<g transform="translate(0.000000,500.000000) scale(0.100000,-0.100000)"
fill="#000000" stroke="none">
<path d="M2266 4260 c-398 -50 -759 -229 -1027 -511 -135 -141 -215 -256 -299
-424 -149 -300 -207 -642 -165 -979 57 -471 274 -874 630 -1174 194 -163 459
-290 728 -348 149 -32 396 -43 558 -24 563 65 1062 418 1315 929 76 154 73
146 113 263 35 102 67 260 75 373 15 204 15 247 5 350 -29 307 -117 556 -280
800 -264 393 -642 639 -1124 731 -93 18 -425 27 -529 14z m474 -106 c380 -58
697 -230 964 -523 180 -197 312 -458 370 -731 29 -133 41 -358 28 -492 -27
-264 -109 -535 -212 -693 -14 -22 -31 -51 -38 -65 -30 -59 -152 -212 -236
-295 -311 -308 -692 -465 -1131 -465 -515 0 -978 234 -1292 653 -79 106 -87
119 -163 272 -70 142 -103 237 -136 394 -31 145 -42 397 -25 549 27 228 128
504 251 687 8 12 24 35 35 51 36 53 152 188 201 235 365 343 878 500 1384 423z"/>
<path d="M2280 3996 c0 -8 5 -18 10 -21 6 -4 10 -75 10 -180 0 -162 -1 -175
-20 -188 -30 -21 -14 -27 64 -27 84 0 112 12 81 35 -16 13 -20 30 -23 90 l-4
75 80 0 80 0 4 -30 c7 -49 -7 -122 -27 -137 -10 -7 -16 -16 -12 -19 10 -10
177 -18 177 -8 0 5 -9 15 -20 22 -19 11 -20 23 -20 176 0 147 2 166 20 188 10
14 16 28 13 32 -3 3 -45 6 -92 6 l-85 0 22 -20 c22 -21 25 -31 25 -90 0 -75 5
-71 -80 -68 l-78 3 0 68 c0 54 4 71 18 81 9 7 17 16 17 20 0 3 -36 6 -80 6
-63 0 -80 -3 -80 -14z"/>
<path d="M2056 3959 c-10 -6 -75 -31 -145 -55 -114 -40 -126 -46 -123 -67 6
-54 42 -104 42 -59 0 22 36 57 66 66 20 6 25 -2 52 -76 58 -163 73 -218 61
-240 -6 -11 -8 -22 -5 -25 8 -8 139 42 144 55 2 6 -6 13 -17 17 -22 7 -20 1
-78 170 -41 121 -43 130 -27 142 25 18 48 16 90 -9 20 -12 35 -17 33 -12 -2 5
-12 30 -23 57 -19 48 -34 56 -70 36z"/>
<path d="M2939 3907 c-45 -17 -73 -36 -99 -70 -76 -97 -64 -229 29 -308 37
-33 97 -59 133 -59 37 0 122 34 152 61 94 82 100 245 12 322 -62 54 -162 78
-227 54z m175 -78 c32 -38 34 -87 6 -161 -39 -104 -102 -152 -175 -134 -33 8
-65 61 -65 106 0 41 45 141 84 188 24 28 34 32 76 32 42 0 52 -4 74 -31z"/>
<path d="M1590 3737 c-14 -12 -45 -38 -69 -57 -24 -19 -62 -52 -85 -72 -43
-38 -43 -37 8 -52 8 -3 55 -58 105 -123 73 -94 91 -125 91 -151 0 -19 4 -32 9
-30 32 12 230 176 230 191 1 10 -9 37 -21 60 l-23 42 -3 -38 c-2 -29 -14 -49
-46 -82 -23 -25 -49 -45 -57 -45 -8 0 -31 24 -52 52 l-39 53 27 22 c14 13 39
23 56 23 36 0 36 12 3 56 -29 38 -44 43 -44 16 0 -10 -15 -33 -34 -51 l-34
-33 -36 48 c-20 26 -36 50 -36 54 0 10 41 45 69 60 13 6 36 9 52 6 36 -7 36
-2 3 41 -29 39 -40 40 -74 10z"/>
<path d="M3372 3612 c-46 -43 -49 -72 -18 -169 31 -95 29 -129 -8 -139 -61
-15 -101 30 -99 112 1 30 -2 54 -6 54 -9 0 -71 -75 -71 -86 0 -4 18 -31 40
-61 83 -109 187 -123 247 -34 30 44 29 89 -3 175 -30 77 -26 99 19 104 53 6
97 -71 68 -118 -6 -8 -7 -18 -5 -22 6 -10 84 49 84 63 0 22 -64 106 -96 127
-50 33 -113 30 -152 -6z"/>
<path d="M2462 3440 c-50 -31 -92 -104 -92 -161 0 -63 11 -90 69 -163 62 -78
71 -97 71 -141 0 -46 -22 -88 -60 -115 -33 -23 -39 -17 -14 18 21 31 10 42
-44 42 -63 0 -215 -17 -277 -31 -66 -15 -166 -63 -184 -88 -13 -18 -16 -18
-39 -3 -31 20 -44 55 -32 86 27 71 292 156 488 156 39 0 72 4 72 10 0 5 -12
21 -27 35 -34 31 -62 32 -220 5 -186 -32 -291 -71 -362 -136 -58 -52 -64 -75
-58 -222 6 -141 24 -234 68 -365 17 -49 28 -91 25 -95 -4 -3 -37 -15 -76 -28
-99 -31 -169 -75 -218 -138 -26 -34 -30 -102 -7 -145 41 -80 206 -185 360
-229 333 -97 839 -93 1130 8 165 58 310 160 336 237 28 87 -16 161 -133 223
-33 18 -58 33 -56 35 2 2 32 20 68 41 85 49 166 126 198 189 33 62 38 180 9
232 -56 105 -166 146 -289 108 l-48 -14 0 40 c0 84 -43 138 -150 188 -68 32
-206 71 -252 71 -24 0 -28 -4 -28 -30 0 -17 6 -32 13 -34 6 -2 37 -9 67 -15
151 -33 250 -92 250 -149 0 -49 -62 -95 -76 -57 -9 23 -121 71 -197 85 l-68
13 -32 -31 c-18 -17 -50 -38 -72 -48 l-40 -16 43 46 c52 57 62 81 62 157 0 71
-3 77 -89 194 -65 87 -66 90 -66 151 0 47 5 67 19 83 25 28 3 28 -42 1z m-280
-613 c-40 -15 -54 -35 -41 -58 20 -37 156 -59 381 -60 129 0 158 -3 138 -11
-42 -19 -364 -22 -457 -5 -113 22 -153 40 -153 71 0 41 57 72 135 74 l30 0
-33 -11z m-288 -126 c96 -52 178 -76 336 -97 266 -35 533 -2 749 92 29 13 55
24 56 24 2 0 -1 -17 -5 -37 -5 -21 -14 -69 -20 -108 -43 -247 -130 -412 -268
-507 -61 -42 -126 -64 -233 -79 -156 -22 -328 20 -434 106 -71 59 -146 183
-187 310 -24 76 -63 325 -51 325 3 0 28 -13 57 -29z m1437 -30 c24 -25 29 -37
29 -81 0 -120 -80 -205 -249 -265 -58 -20 -75 -20 -66 3 4 9 22 76 39 147 36
142 43 160 78 191 30 28 44 32 96 33 35 1 49 -5 73 -28z m-1392 -531 c28 -38
63 -78 78 -90 30 -24 25 -37 -7 -20 -18 10 -24 9 -31 -1 -12 -20 -11 -23 13
-54 52 -66 224 -105 466 -105 220 0 347 22 438 75 33 19 44 32 44 50 0 30 -16
33 -25 5 -13 -40 -110 -80 -194 -80 l-45 0 55 27 c35 17 86 59 144 117 79 80
96 93 143 105 37 9 61 10 75 3 91 -41 142 -70 158 -91 82 -104 -94 -221 -426
-283 -105 -19 -153 -22 -385 -22 -286 0 -372 9 -544 59 -178 52 -286 126 -286
197 0 37 53 93 116 123 47 22 135 54 150 55 6 0 35 -31 63 -70z"/>
<path d="M3352 1737 c-24 -24 -67 -63 -97 -88 -57 -47 -68 -69 -34 -69 30 0
211 -208 208 -240 -1 -8 -1 -19 0 -24 1 -9 72 46 143 113 26 24 56 50 67 58
l21 14 -23 44 c-22 45 -54 64 -42 25 9 -28 -19 -80 -61 -114 l-37 -29 -38 44
c-21 24 -39 47 -39 51 0 12 73 58 93 58 15 0 14 5 -10 35 -30 38 -43 44 -43
20 0 -8 -14 -31 -32 -51 l-32 -36 -33 38 c-18 22 -33 46 -33 55 0 9 16 29 36
44 27 20 44 26 70 23 19 -2 34 -2 34 0 0 9 -56 72 -65 72 -6 0 -30 -19 -53
-43z"/>
<path d="M1492 1705 c-90 -39 -136 -155 -97 -248 18 -43 89 -107 139 -125 35
-13 39 -12 62 9 34 32 30 39 -21 39 -35 0 -52 6 -77 29 -29 26 -33 36 -33 78
0 37 6 56 29 85 54 72 116 94 176 63 31 -16 38 -33 42 -98 l3 -39 39 34 38 33
-42 54 c-69 87 -174 122 -258 86z"/>
<path d="M3070 1529 c-19 -10 -70 -35 -112 -54 -79 -35 -93 -49 -60 -57 31 -9
138 -255 127 -295 -3 -13 -2 -23 3 -23 11 0 245 101 255 110 9 8 -14 90 -25
90 -4 0 -14 -15 -22 -34 -11 -25 -27 -40 -60 -55 -25 -12 -49 -21 -54 -21 -14
0 -54 102 -44 112 16 16 68 26 86 16 28 -16 30 -2 6 48 l-22 47 -21 -26 c-12
-15 -34 -31 -49 -36 -26 -10 -29 -8 -42 23 -31 74 -31 75 10 92 36 15 70 15
107 -1 16 -7 16 -3 -5 39 -12 25 -27 46 -32 45 -6 0 -27 -9 -46 -20z"/>
<path d="M1854 1481 c-48 -22 -76 -55 -100 -116 -31 -82 -1 -170 77 -222 56
-37 158 -44 205 -14 44 27 81 78 95 132 24 90 -12 167 -100 212 -64 32 -118
35 -177 8z m171 -56 c30 -29 33 -88 10 -156 -26 -73 -66 -109 -123 -109 -101
0 -110 158 -15 254 45 45 91 49 128 11z"/>
<path d="M2675 1403 c-44 -8 -91 -20 -105 -25 -25 -10 -25 -10 -3 -20 22 -11
24 -19 54 -211 10 -63 9 -82 -1 -102 -7 -14 -11 -27 -9 -29 4 -5 140 15 148
21 2 1 -6 10 -18 20 -17 15 -41 91 -41 133 0 5 18 11 41 15 31 5 45 3 60 -11
19 -17 19 -16 19 34 0 58 -13 73 -38 42 -9 -11 -33 -23 -53 -26 l-37 -6 -4 53
c-2 30 -3 57 -1 62 8 15 106 7 125 -10 23 -20 33 -12 19 15 -6 12 -11 30 -11
41 0 25 -25 26 -145 4z"/>
<path d="M2230 1393 c0 -3 7 -15 17 -25 14 -16 15 -27 5 -100 -7 -46 -12 -104
-12 -129 0 -32 -7 -55 -21 -73 -12 -15 -20 -28 -18 -30 10 -6 152 -26 157 -21
3 3 -2 13 -12 24 -13 14 -16 33 -14 82 l3 64 37 3 c28 2 42 -2 55 -17 26 -32
33 -26 33 29 0 47 -11 63 -25 40 -3 -5 -27 -10 -52 -10 l-45 0 6 31 c3 17 6
42 6 55 0 22 4 24 47 24 37 0 53 -6 75 -27 l28 -27 0 47 c0 29 -5 49 -12 51
-25 8 -258 16 -258 9z"/>
</g>
</svg>
